<svg xmlns="http://www.w3.org/2000/svg" width="420" height="420" viewBox="-9 43 420 420" fill="none">
  <path
    d="M410.606 252.991C410.606 289.854 400.903 326.067 382.472 357.991C364.04 389.915 337.53 416.425 305.606 434.856L200.606 252.991L410.606 252.991Z"
    fill="#22CCEE"
  />
  <path
    d="M305.608 71.1257C337.532 89.557 364.042 116.067 382.473 147.991C400.904 179.915 410.608 216.128 410.608 252.991L200.608 252.991L305.608 71.1257Z"
    fill="#FEC84B"
  />
  <path
    d="M95.6085 71.1256C127.533 52.6943 163.746 42.991 200.608 42.991C237.471 42.991 273.684 52.6943 305.608 71.1256L200.608 252.991L95.6085 71.1256Z"
    fill="#F79009"
  />
  <path
    d="M-9.39355 252.991C-9.39355 216.128 0.309753 179.915 18.7411 147.991C37.1725 116.067 63.6824 89.557 95.6064 71.1256L200.606 252.991L-9.39355 252.991Z"
    fill="#EC407A"
  />
  <path
    d="M95.6063 434.856C63.6823 416.425 37.1724 389.915 18.741 357.991C0.309657 326.067 -9.39366 289.854 -9.39364 252.991L200.606 252.991L95.6063 434.856Z"
    fill="#2ED3B7"
  />
  <path
    d="M305.606 434.856C273.682 453.288 237.469 462.991 200.606 462.991C163.744 462.991 127.53 453.288 95.6063 434.856L200.606 252.991L305.606 434.856Z"
    fill="#9C27B0"
  />
  <path
    style="mix-blend-mode: multiply"
    d="M201.024 462.991C317.234 462.991 411.441 368.784 411.441 252.574C411.441 136.364 317.234 42.1567 201.024 42.1567C84.8134 42.1567 -9.39355 136.364 -9.39355 252.574C-9.39355 368.784 84.8134 462.991 201.024 462.991Z"
    fill="url(#paint0_radial_17_9534)"
  />

  <g style="mix-blend-mode: overlay">
    <path
      d="M201.023 194.991L217.553 224.36L251.253 223.991L234.083 252.991L251.253 281.991L217.553 281.622L201.023 310.991L184.493 281.622L150.794 281.991L167.963 252.991L150.794 223.991L184.493 224.36L201.023 194.991Z"
      fill="#344054"
    />
  </g>
  <g style="mix-blend-mode: overlay">
    <path
      d="M201.023 67.9911L253.748 161.669L361.238 160.491L306.473 252.991L361.238 345.491L253.748 344.313L201.023 437.991L148.298 344.313L40.8087 345.491L95.5734 252.991L40.8087 160.491L148.298 161.669L201.023 67.9911Z"
      fill="#344054"
    />
  </g>
  <path
    style="mix-blend-mode: multiply"
    opacity="0.6"
    d="M196.824 297.613C218.041 297.613 235.241 280.413 235.241 259.196C235.241 237.979 218.041 220.779 196.824 220.779C175.607 220.779 158.407 237.979 158.407 259.196C158.407 280.413 175.607 297.613 196.824 297.613Z"
    fill="url(#paint2_radial_17_9534)"
  />
  <path
    d="M223.137 273.068C234.461 261.745 234.461 243.386 223.137 232.062C211.814 220.739 193.455 220.739 182.132 232.062C170.808 243.386 170.808 261.745 182.132 273.068C193.455 284.391 211.814 284.391 223.137 273.068Z"
    fill="url(#paint3_linear_17_9534)"
  />
  <path
    d="M222.504 269.391C231.778 258.428 230.409 242.022 219.446 232.747C208.483 223.473 192.077 224.842 182.803 235.805C173.528 246.768 174.897 263.174 185.86 272.449C196.824 281.723 213.229 280.354 222.504 269.391Z"
    fill="url(#paint4_linear_17_9534)"
  />
  <path
    d="M191.578 258.778C190.698 258.778 189.948 258.618 189.328 258.298C188.718 257.978 188.193 257.548 187.753 257.008L188.923 255.913C189.293 256.363 189.698 256.703 190.138 256.933C190.588 257.163 191.098 257.278 191.668 257.278C192.338 257.278 192.843 257.128 193.183 256.828C193.523 256.528 193.693 256.123 193.693 255.613C193.693 255.203 193.573 254.878 193.333 254.638C193.093 254.398 192.668 254.218 192.058 254.098L191.128 253.933C190.108 253.743 189.343 253.408 188.833 252.928C188.323 252.448 188.068 251.788 188.068 250.948C188.068 250.488 188.153 250.073 188.323 249.703C188.503 249.323 188.748 249.008 189.058 248.758C189.378 248.498 189.763 248.298 190.213 248.158C190.663 248.018 191.168 247.948 191.728 247.948C192.518 247.948 193.203 248.088 193.783 248.368C194.363 248.638 194.858 249.033 195.268 249.553L194.083 250.603C193.813 250.253 193.483 249.973 193.093 249.763C192.703 249.553 192.218 249.448 191.638 249.448C191.038 249.448 190.573 249.568 190.243 249.808C189.913 250.048 189.748 250.398 189.748 250.858C189.748 251.298 189.883 251.628 190.153 251.848C190.423 252.058 190.843 252.218 191.413 252.328L192.343 252.523C193.393 252.723 194.158 253.063 194.638 253.543C195.128 254.023 195.373 254.683 195.373 255.523C195.373 256.013 195.288 256.458 195.118 256.858C194.948 257.258 194.698 257.603 194.368 257.893C194.048 258.173 193.653 258.393 193.183 258.553C192.713 258.703 192.178 258.778 191.578 258.778ZM197.288 250.798H198.923V252.088H198.998C199.168 251.618 199.443 251.258 199.823 251.008C200.213 250.748 200.668 250.618 201.188 250.618C202.178 250.618 202.943 250.978 203.483 251.698C204.023 252.408 204.293 253.408 204.293 254.698C204.293 255.988 204.023 256.993 203.483 257.713C202.943 258.423 202.178 258.778 201.188 258.778C200.668 258.778 200.213 258.648 199.823 258.388C199.443 258.128 199.168 257.768 198.998 257.308H198.923V261.598H197.288V250.798ZM200.693 257.368C201.263 257.368 201.718 257.188 202.058 256.828C202.398 256.458 202.568 255.973 202.568 255.373V254.023C202.568 253.423 202.398 252.943 202.058 252.583C201.718 252.213 201.263 252.028 200.693 252.028C200.193 252.028 199.773 252.153 199.433 252.403C199.093 252.643 198.923 252.963 198.923 253.363V256.033C198.923 256.433 199.093 256.758 199.433 257.008C199.773 257.248 200.193 257.368 200.693 257.368ZM206.99 249.403C206.65 249.403 206.4 249.323 206.24 249.163C206.09 249.003 206.015 248.798 206.015 248.548V248.293C206.015 248.043 206.09 247.838 206.24 247.678C206.4 247.518 206.65 247.438 206.99 247.438C207.33 247.438 207.575 247.518 207.725 247.678C207.875 247.838 207.95 248.043 207.95 248.293V248.548C207.95 248.798 207.875 249.003 207.725 249.163C207.575 249.323 207.33 249.403 206.99 249.403ZM206.165 250.798H207.8V258.598H206.165V250.798ZM210.135 258.598V250.798H211.77V252.088H211.845C212.015 251.668 212.27 251.318 212.61 251.038C212.96 250.758 213.435 250.618 214.035 250.618C214.835 250.618 215.455 250.883 215.895 251.413C216.345 251.933 216.57 252.678 216.57 253.648V258.598H214.935V253.858C214.935 252.638 214.445 252.028 213.465 252.028C213.255 252.028 213.045 252.058 212.835 252.118C212.635 252.168 212.455 252.248 212.295 252.358C212.135 252.468 212.005 252.608 211.905 252.778C211.815 252.948 211.77 253.148 211.77 253.378V258.598H210.135Z"
    fill="#FCFCFD"
  />
  <path
    d="M213.504 143.966H209.753V138.138H195.245V138.417L201.011 142.819L198.686 145.795L191.866 140.618V133.488H209.753V128.9H213.504V143.966ZM213.876 118.992C213.876 121.823 212.894 123.921 210.931 125.285C208.968 126.649 206.219 127.331 202.685 127.331C199.151 127.331 196.402 126.649 194.439 125.285C192.476 123.921 191.494 121.823 191.494 118.992C191.494 116.161 192.476 114.063 194.439 112.699C196.402 111.335 199.151 110.653 202.685 110.653C206.219 110.653 208.968 111.335 210.931 112.699C212.894 114.063 213.876 116.161 213.876 118.992ZM209.939 118.992C209.939 117.752 209.484 116.894 208.575 116.419C207.666 115.944 206.384 115.706 204.731 115.706H200.639C198.986 115.706 197.704 115.944 196.795 116.419C195.886 116.894 195.431 117.752 195.431 118.992C195.431 120.232 195.886 121.09 196.795 121.565C197.704 122.04 198.986 122.278 200.639 122.278H204.731C206.384 122.278 207.666 122.04 208.575 121.565C209.484 121.09 209.939 120.232 209.939 118.992ZM213.876 100.404C213.876 103.235 212.894 105.333 210.931 106.697C208.968 108.061 206.219 108.743 202.685 108.743C199.151 108.743 196.402 108.061 194.439 106.697C192.476 105.333 191.494 103.235 191.494 100.404C191.494 97.5728 192.476 95.4751 194.439 94.1111C196.402 92.7471 199.151 92.0651 202.685 92.0651C206.219 92.0651 208.968 92.7471 210.931 94.1111C212.894 95.4751 213.876 97.5728 213.876 100.404ZM209.939 100.404C209.939 99.1641 209.484 98.3064 208.575 97.8311C207.666 97.3558 206.384 97.1181 204.731 97.1181H200.639C198.986 97.1181 197.704 97.3558 196.795 97.8311C195.886 98.3064 195.431 99.1641 195.431 100.404C195.431 101.644 195.886 102.502 196.795 102.977C197.704 103.452 198.986 103.69 200.639 103.69H204.731C206.384 103.69 207.666 103.452 208.575 102.977C209.484 102.502 209.939 101.644 209.939 100.404Z"
    fill="#7A2E0E"
  />
  <path
    d="M211.709 144.707H207.958V138.879H193.45V139.158L199.216 143.56L196.891 146.536L190.071 141.359V134.229H207.958V129.641H211.709V144.707ZM212.081 119.733C212.081 122.564 211.099 124.662 209.136 126.026C207.173 127.39 204.424 128.072 200.89 128.072C197.356 128.072 194.607 127.39 192.644 126.026C190.681 124.662 189.699 122.564 189.699 119.733C189.699 116.902 190.681 114.804 192.644 113.44C194.607 112.076 197.356 111.394 200.89 111.394C204.424 111.394 207.173 112.076 209.136 113.44C211.099 114.804 212.081 116.902 212.081 119.733ZM208.144 119.733C208.144 118.493 207.689 117.635 206.78 117.16C205.871 116.685 204.589 116.447 202.936 116.447H198.844C197.191 116.447 195.909 116.685 195 117.16C194.091 117.635 193.636 118.493 193.636 119.733C193.636 120.973 194.091 121.831 195 122.306C195.909 122.781 197.191 123.019 198.844 123.019H202.936C204.589 123.019 205.871 122.781 206.78 122.306C207.689 121.831 208.144 120.973 208.144 119.733ZM212.081 101.145C212.081 103.977 211.099 106.074 209.136 107.438C207.173 108.802 204.424 109.484 200.89 109.484C197.356 109.484 194.607 108.802 192.644 107.438C190.681 106.074 189.699 103.977 189.699 101.145C189.699 98.3139 190.681 96.2162 192.644 94.8522C194.607 93.4882 197.356 92.8062 200.89 92.8062C204.424 92.8062 207.173 93.4882 209.136 94.8522C211.099 96.2162 212.081 98.3139 212.081 101.145ZM208.144 101.145C208.144 99.9052 207.689 99.0475 206.78 98.5722C205.871 98.0969 204.589 97.8592 202.936 97.8592H198.844C197.191 97.8592 195.909 98.0969 195 98.5722C194.091 99.0475 193.636 99.9052 193.636 101.145C193.636 102.385 194.091 103.243 195 103.718C195.909 104.194 197.191 104.431 198.844 104.431H202.936C204.589 104.431 205.871 104.194 206.78 103.718C207.689 103.243 208.144 102.385 208.144 101.145Z"
    fill="white"
  />
  <path
    d="M292.788 198.085C293.79 197.506 294.406 196.9 294.637 196.266C294.875 195.603 294.829 194.986 294.498 194.413L294.389 194.225C293.997 193.545 293.458 193.128 292.773 192.975C292.106 192.811 291.369 192.962 290.564 193.427C289.812 193.861 289.219 194.466 288.784 195.242C288.339 196 288.09 196.871 288.038 197.856L284.15 196.95C284.24 196.278 284.382 195.636 284.576 195.022C284.761 194.391 285.035 193.791 285.399 193.223C285.753 192.637 286.21 192.086 286.772 191.571C287.323 191.038 288.002 190.539 288.807 190.074C289.809 189.495 290.78 189.09 291.72 188.857C292.678 188.615 293.572 188.552 294.403 188.669C295.242 188.757 295.989 189.018 296.644 189.451C297.318 189.873 297.872 190.46 298.306 191.212C298.647 191.803 298.858 192.396 298.94 192.993C299.04 193.58 299.024 194.15 298.89 194.705C298.775 195.249 298.569 195.761 298.274 196.242C297.969 196.704 297.6 197.12 297.169 197.489L297.262 197.65C297.878 197.437 298.492 197.321 299.102 197.303C299.719 197.257 300.307 197.323 300.864 197.503C301.439 197.672 301.974 197.959 302.471 198.365C302.957 198.752 303.386 199.268 303.758 199.912C304.244 200.754 304.513 201.612 304.566 202.489C304.618 203.365 304.471 204.226 304.124 205.071C303.776 205.916 303.241 206.726 302.519 207.5C301.787 208.257 300.893 208.941 299.837 209.55C298.888 210.098 297.99 210.485 297.143 210.712C296.295 210.939 295.501 211.051 294.76 211.049C294.027 211.019 293.331 210.908 292.671 210.717C292.029 210.514 291.417 210.259 290.833 209.952L292.48 205.923C293.336 206.454 294.204 206.8 295.084 206.961C295.972 207.093 296.926 206.864 297.946 206.275C298.859 205.748 299.437 205.116 299.679 204.379C299.93 203.614 299.828 202.838 299.373 202.051L299.28 201.889C298.836 201.12 298.21 200.718 297.402 200.683C296.602 200.62 295.692 200.883 294.672 201.472L292.98 202.448L291.043 199.092L292.788 198.085ZM316.633 199.853C314.181 201.269 311.873 201.468 309.71 200.449C307.547 199.431 305.582 197.392 303.815 194.331C302.048 191.271 301.265 188.549 301.464 186.167C301.664 183.785 302.99 181.886 305.442 180.47C307.894 179.054 310.201 178.856 312.364 179.874C314.527 180.892 316.492 182.932 318.259 185.992C320.026 189.053 320.81 191.774 320.61 194.156C320.41 196.539 319.085 198.438 316.633 199.853ZM314.664 196.444C315.738 195.824 316.253 195.001 316.21 193.976C316.167 192.951 315.732 191.722 314.906 190.291L312.86 186.747C312.033 185.315 311.187 184.324 310.32 183.774C309.454 183.224 308.484 183.26 307.41 183.88C306.336 184.5 305.821 185.322 305.864 186.347C305.907 187.372 306.342 188.601 307.168 190.033L309.214 193.577C310.041 195.008 310.887 195.999 311.754 196.549C312.62 197.099 313.59 197.064 314.664 196.444ZM332.73 190.559C330.278 191.975 327.971 192.174 325.808 191.155C323.645 190.137 321.68 188.098 319.913 185.037C318.146 181.977 317.362 179.255 317.562 176.873C317.761 174.491 319.087 172.592 321.539 171.176C323.991 169.76 326.299 169.562 328.462 170.58C330.624 171.598 332.589 173.638 334.356 176.698C336.123 179.759 336.907 182.48 336.708 184.862C336.508 187.245 335.182 189.144 332.73 190.559ZM330.762 187.15C331.835 186.53 332.351 185.707 332.308 184.682C332.265 183.657 331.83 182.428 331.003 180.997L328.957 177.453C328.131 176.021 327.284 175.03 326.418 174.48C325.552 173.93 324.581 173.966 323.508 174.586C322.434 175.206 321.918 176.028 321.961 177.053C322.004 178.079 322.439 179.307 323.266 180.739L325.312 184.283C326.139 185.714 326.985 186.705 327.851 187.255C328.718 187.805 329.688 187.77 330.762 187.15Z"
    fill="#B54708"
  />
  <path
    d="M291.249 196.901C292.251 196.323 292.867 195.716 293.098 195.082C293.336 194.42 293.289 193.802 292.959 193.229L292.85 193.041C292.458 192.361 291.919 191.945 291.234 191.791C290.566 191.628 289.83 191.778 289.025 192.243C288.273 192.677 287.68 193.282 287.245 194.058C286.8 194.817 286.551 195.688 286.499 196.673L282.611 195.767C282.701 195.095 282.843 194.452 283.037 193.839C283.222 193.207 283.496 192.608 283.86 192.039C284.214 191.453 284.671 190.903 285.233 190.388C285.784 189.854 286.463 189.355 287.268 188.89C288.27 188.312 289.241 187.906 290.181 187.674C291.139 187.431 292.033 187.368 292.864 187.485C293.703 187.574 294.45 187.834 295.105 188.267C295.779 188.69 296.333 189.277 296.767 190.029C297.108 190.619 297.319 191.213 297.401 191.81C297.501 192.396 297.485 192.967 297.351 193.521C297.236 194.065 297.03 194.577 296.735 195.058C296.43 195.521 296.061 195.937 295.629 196.305L295.722 196.466C296.339 196.253 296.953 196.138 297.563 196.12C298.18 196.073 298.768 196.14 299.325 196.319C299.9 196.489 300.435 196.776 300.932 197.181C301.418 197.569 301.847 198.085 302.219 198.729C302.705 199.57 302.974 200.429 303.027 201.305C303.079 202.182 302.932 203.042 302.584 203.887C302.237 204.732 301.702 205.542 300.98 206.317C300.248 207.074 299.354 207.757 298.298 208.367C297.349 208.914 296.451 209.302 295.604 209.529C294.756 209.755 293.962 209.868 293.221 209.866C292.488 209.836 291.792 209.725 291.132 209.533C290.49 209.331 289.878 209.076 289.294 208.768L290.941 204.739C291.797 205.271 292.665 205.617 293.545 205.777C294.433 205.909 295.387 205.681 296.407 205.092C297.32 204.565 297.897 203.933 298.14 203.196C298.391 202.431 298.288 201.655 297.834 200.867L297.741 200.706C297.296 199.936 296.671 199.534 295.863 199.499C295.063 199.436 294.153 199.699 293.133 200.288L291.441 201.265L289.504 197.909L291.249 196.901ZM315.093 198.67C312.641 200.086 310.334 200.284 308.171 199.266C306.008 198.248 304.043 196.208 302.276 193.148C300.509 190.087 299.725 187.366 299.925 184.983C300.125 182.601 301.45 180.702 303.902 179.287C306.354 177.871 308.662 177.672 310.825 178.69C312.988 179.709 314.953 181.748 316.72 184.809C318.487 187.869 319.27 190.591 319.071 192.973C318.871 195.355 317.545 197.254 315.093 198.67ZM313.125 195.26C314.199 194.64 314.714 193.818 314.671 192.793C314.628 191.767 314.193 190.539 313.367 189.107L311.321 185.563C310.494 184.131 309.648 183.141 308.781 182.591C307.915 182.041 306.945 182.076 305.871 182.696C304.797 183.316 304.282 184.139 304.325 185.164C304.368 186.189 304.803 187.417 305.629 188.849L307.675 192.393C308.502 193.825 309.348 194.816 310.215 195.366C311.081 195.915 312.051 195.88 313.125 195.26ZM331.191 189.376C328.739 190.792 326.432 190.99 324.269 189.972C322.106 188.954 320.141 186.914 318.374 183.854C316.607 180.793 315.823 178.072 316.023 175.69C316.222 173.307 317.548 171.408 320 169.993C322.452 168.577 324.76 168.378 326.922 169.397C329.085 170.415 331.05 172.454 332.817 175.515C334.584 178.575 335.368 181.297 335.168 183.679C334.969 186.061 333.643 187.96 331.191 189.376ZM329.223 185.966C330.296 185.346 330.812 184.524 330.769 183.499C330.726 182.473 330.291 181.245 329.464 179.813L327.418 176.269C326.592 174.838 325.745 173.847 324.879 173.297C324.013 172.747 323.042 172.782 321.969 173.402C320.895 174.022 320.379 174.845 320.422 175.87C320.465 176.895 320.9 178.124 321.727 179.555L323.773 183.099C324.599 184.531 325.446 185.522 326.312 186.072C327.179 186.621 328.149 186.586 329.223 185.966Z"
    fill="#FFFCF5"
  />
  <path
    d="M302.201 305.993L293.691 301.079L289.862 306.78L290.077 306.904C290.514 306.56 290.944 306.271 291.365 306.037C291.815 305.795 292.264 305.637 292.713 305.562C293.172 305.469 293.658 305.475 294.17 305.58C294.683 305.685 295.234 305.908 295.825 306.249C296.63 306.714 297.304 307.282 297.847 307.954C298.39 308.625 298.771 309.37 298.991 310.189C299.221 310.99 299.271 311.854 299.141 312.781C299.021 313.691 298.693 314.611 298.156 315.541C297.608 316.49 296.935 317.283 296.138 317.92C295.369 318.55 294.5 318.979 293.533 319.208C292.583 319.448 291.563 319.479 290.472 319.302C289.391 319.108 288.278 318.68 287.132 318.019C286.219 317.492 285.471 316.928 284.887 316.328C284.302 315.728 283.835 315.112 283.484 314.48C283.143 313.83 282.9 313.177 282.754 312.52C282.608 311.863 282.532 311.21 282.524 310.562L286.784 309.942C286.772 310.914 286.902 311.824 287.175 312.674C287.459 313.506 288.084 314.201 289.05 314.759C290.017 315.317 290.902 315.458 291.705 315.182C292.527 314.917 293.201 314.327 293.728 313.415L293.852 313.2C294.348 312.341 294.49 311.516 294.278 310.725C294.066 309.935 293.522 309.287 292.645 308.78C291.911 308.357 291.215 308.157 290.556 308.183C289.925 308.2 289.402 308.28 288.986 308.422L285.947 306.059L292.768 295.857L304.231 302.476L302.201 305.993ZM303.364 327.39C300.912 325.974 299.586 324.075 299.387 321.693C299.187 319.311 299.971 316.589 301.738 313.529C303.505 310.468 305.47 308.429 307.633 307.411C309.796 306.392 312.103 306.591 314.555 308.007C317.007 309.422 318.333 311.321 318.532 313.704C318.732 316.086 317.948 318.807 316.181 321.868C314.414 324.928 312.449 326.968 310.286 327.986C308.124 329.004 305.816 328.806 303.364 327.39ZM305.333 323.981C306.406 324.601 307.377 324.636 308.243 324.086C309.109 323.536 309.956 322.545 310.782 321.113L312.828 317.569C313.655 316.138 314.09 314.909 314.133 313.884C314.176 312.859 313.66 312.036 312.587 311.416C311.513 310.796 310.543 310.761 309.676 311.311C308.81 311.861 307.963 312.852 307.137 314.283L305.091 317.827C304.264 319.259 303.829 320.488 303.786 321.513C303.743 322.538 304.259 323.361 305.333 323.981ZM319.462 336.684C317.01 335.268 315.684 333.369 315.484 330.987C315.285 328.605 316.068 325.883 317.835 322.823C319.602 319.762 321.567 317.723 323.73 316.705C325.893 315.686 328.201 315.885 330.653 317.301C333.105 318.716 334.43 320.615 334.63 322.998C334.83 325.38 334.046 328.101 332.279 331.162C330.512 334.222 328.547 336.262 326.384 337.28C324.221 338.298 321.914 338.1 319.462 336.684ZM321.43 333.274C322.504 333.894 323.474 333.93 324.34 333.38C325.207 332.83 326.053 331.839 326.88 330.407L328.926 326.863C329.753 325.432 330.187 324.203 330.23 323.178C330.273 322.153 329.758 321.33 328.684 320.71C327.61 320.09 326.64 320.055 325.774 320.605C324.908 321.155 324.061 322.146 323.234 323.577L321.188 327.121C320.362 328.553 319.927 329.782 319.884 330.807C319.841 331.832 320.356 332.654 321.43 333.274Z"
    fill="#175CD3"
  />
  <path
    d="M302.456 304.068L293.945 299.155L290.117 304.855L290.332 304.979C290.769 304.635 291.199 304.346 291.62 304.112C292.07 303.871 292.519 303.713 292.968 303.638C293.427 303.545 293.913 303.551 294.425 303.656C294.937 303.76 295.489 303.983 296.08 304.324C296.885 304.789 297.559 305.358 298.102 306.029C298.645 306.701 299.026 307.446 299.246 308.264C299.475 309.065 299.525 309.929 299.396 310.857C299.276 311.766 298.948 312.686 298.411 313.617C297.863 314.565 297.19 315.358 296.393 315.996C295.624 316.625 294.755 317.055 293.788 317.284C292.838 317.523 291.818 317.554 290.727 317.378C289.646 317.183 288.533 316.755 287.387 316.094C286.474 315.567 285.726 315.004 285.141 314.404C284.557 313.804 284.089 313.188 283.738 312.556C283.398 311.906 283.155 311.252 283.009 310.595C282.863 309.938 282.787 309.286 282.779 308.637L287.039 308.018C287.027 308.989 287.157 309.9 287.43 310.75C287.714 311.581 288.338 312.276 289.305 312.834C290.271 313.392 291.156 313.533 291.96 313.257C292.782 312.992 293.456 312.403 293.983 311.49L294.107 311.275C294.603 310.416 294.745 309.591 294.533 308.801C294.321 308.01 293.777 307.362 292.9 306.856C292.166 306.432 291.47 306.233 290.811 306.258C290.18 306.276 289.657 306.356 289.241 306.497L286.202 304.134L293.023 293.933L304.486 300.551L302.456 304.068ZM303.619 325.465C301.167 324.05 299.841 322.151 299.642 319.769C299.442 317.386 300.226 314.665 301.993 311.604C303.76 308.544 305.725 306.504 307.888 305.486C310.05 304.468 312.358 304.666 314.81 306.082C317.262 307.498 318.588 309.397 318.787 311.779C318.987 314.161 318.203 316.883 316.436 319.943C314.669 323.004 312.704 325.043 310.541 326.062C308.378 327.08 306.071 326.881 303.619 325.465ZM305.587 322.056C306.661 322.676 307.631 322.711 308.498 322.161C309.364 321.611 310.211 320.621 311.037 319.189L313.083 315.645C313.91 314.213 314.345 312.985 314.388 311.959C314.431 310.934 313.915 310.112 312.841 309.492C311.768 308.872 310.797 308.837 309.931 309.386C309.065 309.936 308.218 310.927 307.392 312.359L305.346 315.903C304.519 317.335 304.084 318.563 304.041 319.588C303.998 320.613 304.514 321.436 305.587 322.056ZM319.717 334.759C317.265 333.344 315.939 331.445 315.739 329.062C315.54 326.68 316.323 323.959 318.09 320.898C319.857 317.838 321.822 315.798 323.985 314.78C326.148 313.762 328.456 313.96 330.908 315.376C333.36 316.792 334.685 318.691 334.885 321.073C335.085 323.455 334.301 326.177 332.534 329.237C330.767 332.298 328.802 334.337 326.639 335.355C324.476 336.374 322.169 336.175 319.717 334.759ZM321.685 331.35C322.759 331.97 323.729 332.005 324.595 331.455C325.462 330.905 326.308 329.914 327.135 328.483L329.181 324.939C330.007 323.507 330.442 322.279 330.485 321.253C330.528 320.228 330.013 319.406 328.939 318.786C327.865 318.166 326.895 318.131 326.029 318.68C325.162 319.23 324.316 320.221 323.489 321.653L321.443 325.197C320.617 326.628 320.182 327.857 320.139 328.882C320.096 329.907 320.611 330.73 321.685 331.35Z"
    fill="white"
  />
  <path
    d="M188.127 344.535L191.878 344.535L191.878 350.363L206.386 350.363L206.386 350.084L200.62 345.682L202.945 342.706L209.765 347.883L209.765 355.013L191.878 355.013L191.878 359.601L188.127 359.601L188.127 344.535ZM187.755 369.509C187.755 366.678 188.737 364.58 190.7 363.216C192.663 361.852 195.412 361.17 198.946 361.17C202.48 361.17 205.229 361.852 207.192 363.216C209.155 364.58 210.137 366.678 210.137 369.509C210.137 372.34 209.155 374.438 207.192 375.802C205.229 377.166 202.48 377.848 198.946 377.848C195.412 377.848 192.663 377.166 190.7 375.802C188.737 374.438 187.755 372.34 187.755 369.509ZM191.692 369.509C191.692 370.749 192.147 371.607 193.056 372.082C193.965 372.557 195.247 372.795 196.9 372.795L200.992 372.795C202.645 372.795 203.927 372.557 204.836 372.082C205.745 371.607 206.2 370.749 206.2 369.509C206.2 368.269 205.745 367.411 204.836 366.936C203.927 366.461 202.645 366.223 200.992 366.223L196.9 366.223C195.247 366.223 193.965 366.461 193.056 366.936C192.147 367.411 191.692 368.269 191.692 369.509ZM187.755 388.097C187.755 385.265 188.737 383.168 190.7 381.804C192.663 380.44 195.412 379.758 198.946 379.758C202.48 379.758 205.229 380.44 207.192 381.804C209.155 383.168 210.137 385.265 210.137 388.097C210.137 390.928 209.155 393.026 207.192 394.39C205.229 395.754 202.48 396.436 198.946 396.436C195.412 396.436 192.663 395.754 190.7 394.39C188.737 393.026 187.755 390.928 187.755 388.097ZM191.692 388.097C191.692 389.337 192.147 390.194 193.056 390.67C193.965 391.145 195.247 391.383 196.9 391.383L200.992 391.383C202.645 391.383 203.927 391.145 204.836 390.67C205.745 390.194 206.2 389.337 206.2 388.097C206.2 386.857 205.745 385.999 204.836 385.524C203.927 385.048 202.645 384.811 200.992 384.811L196.9 384.811C195.247 384.811 193.965 385.048 193.056 385.524C192.147 385.999 191.692 386.857 191.692 388.097ZM187.755 406.685C187.755 403.853 188.737 401.756 190.7 400.392C192.663 399.028 195.412 398.346 198.946 398.346C202.48 398.346 205.229 399.028 207.192 400.392C209.155 401.756 210.137 403.853 210.137 406.685C210.137 409.516 209.155 411.614 207.192 412.978C205.229 414.342 202.48 415.024 198.946 415.024C195.412 415.024 192.663 414.342 190.7 412.978C188.737 411.614 187.755 409.516 187.755 406.685ZM191.692 406.685C191.692 407.925 192.147 408.782 193.056 409.258C193.965 409.733 195.247 409.971 196.9 409.971L200.992 409.971C202.645 409.971 203.927 409.733 204.836 409.258C205.745 408.782 206.2 407.925 206.2 406.685C206.2 405.445 205.745 404.587 204.836 404.112C203.927 403.636 202.645 403.399 200.992 403.399L196.9 403.399C195.247 403.399 193.965 403.636 193.056 404.112C192.147 404.587 191.692 405.445 191.692 406.685Z"
    fill="#880E4F"
  />
  <path
    d="M189.921 343.794L193.672 343.794L193.672 349.622L208.18 349.622L208.18 349.343L202.414 344.941L204.739 341.965L211.559 347.142L211.559 354.272L193.672 354.272L193.672 358.86L189.921 358.86L189.921 343.794ZM189.549 368.768C189.549 365.936 190.531 363.839 192.494 362.475C194.457 361.111 197.206 360.429 200.74 360.429C204.274 360.429 207.023 361.111 208.986 362.475C210.949 363.839 211.931 365.936 211.931 368.768C211.931 371.599 210.949 373.697 208.986 375.061C207.023 376.425 204.274 377.107 200.74 377.107C197.206 377.107 194.457 376.425 192.494 375.061C190.531 373.697 189.549 371.599 189.549 368.768ZM193.486 368.768C193.486 370.008 193.941 370.865 194.85 371.341C195.759 371.816 197.041 372.054 198.694 372.054L202.786 372.054C204.439 372.054 205.721 371.816 206.63 371.341C207.539 370.865 207.994 370.008 207.994 368.768C207.994 367.528 207.539 366.67 206.63 366.195C205.721 365.719 204.439 365.482 202.786 365.482L198.694 365.482C197.041 365.482 195.759 365.719 194.85 366.195C193.941 366.67 193.486 367.528 193.486 368.768ZM189.549 387.356C189.549 384.524 190.531 382.427 192.494 381.063C194.457 379.699 197.206 379.017 200.74 379.017C204.274 379.017 207.023 379.699 208.986 381.063C210.949 382.427 211.931 384.524 211.931 387.356C211.931 390.187 210.949 392.285 208.986 393.649C207.023 395.013 204.274 395.695 200.74 395.695C197.206 395.695 194.457 395.013 192.494 393.649C190.531 392.285 189.549 390.187 189.549 387.356ZM193.486 387.356C193.486 388.596 193.941 389.453 194.85 389.929C195.759 390.404 197.041 390.642 198.694 390.642L202.786 390.642C204.439 390.642 205.721 390.404 206.63 389.929C207.539 389.453 207.994 388.596 207.994 387.356C207.994 386.116 207.539 385.258 206.63 384.783C205.721 384.307 204.439 384.07 202.786 384.07L198.694 384.07C197.041 384.07 195.759 384.307 194.85 384.783C193.941 385.258 193.486 386.116 193.486 387.356ZM189.549 405.944C189.549 403.112 190.531 401.015 192.494 399.651C194.457 398.287 197.206 397.605 200.74 397.605C204.274 397.605 207.023 398.287 208.986 399.651C210.949 401.015 211.931 403.112 211.931 405.944C211.931 408.775 210.949 410.873 208.986 412.237C207.023 413.601 204.274 414.283 200.74 414.283C197.206 414.283 194.457 413.601 192.494 412.237C190.531 410.873 189.549 408.775 189.549 405.944ZM193.486 405.944C193.486 407.184 193.941 408.041 194.85 408.517C195.759 408.992 197.041 409.23 198.694 409.23L202.786 409.23C204.439 409.23 205.721 408.992 206.63 408.517C207.539 408.041 207.994 407.184 207.994 405.944C207.994 404.704 207.539 403.846 206.63 403.371C205.721 402.895 204.439 402.658 202.786 402.658L198.694 402.658C197.041 402.658 195.759 402.895 194.85 403.371C193.941 403.846 193.486 404.704 193.486 405.944Z"
    fill="#FFF4F8"
  />
  <path
    d="M144.885 206.458L143.009 209.706L137.962 206.792L130.708 219.357L130.95 219.496L137.645 216.704L139.06 220.205L131.166 223.523L124.991 219.958L133.935 204.467L129.962 202.173L131.837 198.925L144.885 206.458ZM123.443 193.649C125.895 195.064 127.22 196.963 127.42 199.346C127.62 201.728 126.836 204.449 125.069 207.51C123.302 210.57 121.337 212.61 119.174 213.628C117.011 214.646 114.704 214.448 112.252 213.032C109.8 211.616 108.474 209.717 108.274 207.335C108.075 204.953 108.858 202.231 110.625 199.171C112.392 196.11 114.357 194.071 116.52 193.053C118.683 192.034 120.991 192.233 123.443 193.649ZM121.474 197.058C120.4 196.438 119.43 196.403 118.564 196.953C117.697 197.503 116.851 198.494 116.024 199.925L113.978 203.469C113.152 204.901 112.717 206.13 112.674 207.155C112.631 208.18 113.146 209.002 114.22 209.622C115.294 210.242 116.264 210.278 117.13 209.728C117.997 209.178 118.843 208.187 119.67 206.755L121.716 203.211C122.543 201.78 122.977 200.551 123.02 199.526C123.063 198.501 122.548 197.678 121.474 197.058ZM107.345 184.355C109.797 185.77 111.123 187.669 111.322 190.052C111.522 192.434 110.738 195.155 108.971 198.216C107.204 201.276 105.239 203.316 103.076 204.334C100.913 205.352 98.606 205.154 96.154 203.738C93.702 202.322 92.3762 200.423 92.1766 198.041C91.977 195.659 92.7607 192.937 94.5277 189.877C96.2947 186.816 98.2597 184.777 100.423 183.759C102.586 182.74 104.893 182.939 107.345 184.355ZM105.376 187.764C104.303 187.144 103.333 187.109 102.466 187.659C101.6 188.209 100.753 189.2 99.9267 190.632L97.8807 194.175C97.0541 195.607 96.6192 196.836 96.5762 197.861C96.5332 198.886 97.0486 199.709 98.1225 200.329C99.1964 200.949 100.166 200.984 101.033 200.434C101.899 199.884 102.746 198.893 103.572 197.461L105.618 193.918C106.445 192.486 106.88 191.257 106.923 190.232C106.966 189.207 106.45 188.384 105.376 187.764ZM91.2474 175.061C93.6994 176.476 95.0252 178.375 95.2248 180.758C95.4244 183.14 94.6407 185.861 92.8737 188.922C91.1067 191.982 89.1417 194.022 86.9788 195.04C84.8159 196.058 82.5084 195.86 80.0564 194.444C77.6044 193.028 76.2786 191.129 76.079 188.747C75.8794 186.365 76.6631 183.643 78.4301 180.583C80.1971 177.522 82.1621 175.483 84.325 174.465C86.4879 173.446 88.7954 173.645 91.2474 175.061ZM89.2789 178.47C88.205 177.85 87.2349 177.815 86.3686 178.365C85.5023 178.915 84.6558 179.906 83.8292 181.338L81.7832 184.881C80.9565 186.313 80.5216 187.542 80.4786 188.567C80.4356 189.592 80.951 190.415 82.0249 191.035C83.0988 191.655 84.0689 191.69 84.9352 191.14C85.8015 190.59 86.648 189.599 87.4747 188.167L89.5207 184.624C90.3473 183.192 90.7822 181.963 90.8252 180.938C90.8682 179.913 90.3528 179.09 89.2789 178.47ZM75.1498 165.767C77.6018 167.182 78.9276 169.081 79.1272 171.464C79.3268 173.846 78.5431 176.567 76.7761 179.628C75.0091 182.689 73.0441 184.728 70.8812 185.746C68.7183 186.765 66.4108 186.566 63.9588 185.15C61.5068 183.735 60.181 181.836 59.9814 179.453C59.7818 177.071 60.5655 174.35 62.3325 171.289C64.0995 168.228 66.0645 166.189 68.2274 165.171C70.3904 164.152 72.6978 164.351 75.1498 165.767ZM73.1813 169.176C72.1075 168.556 71.1374 168.521 70.271 169.071C69.4047 169.621 68.5582 170.612 67.7316 172.044L65.6856 175.587C64.8589 177.019 64.4241 178.248 64.381 179.273C64.338 180.298 64.8535 181.121 65.9273 181.741C67.0012 182.361 67.9713 182.396 68.8376 181.846C69.7039 181.296 70.5504 180.305 71.3771 178.873L73.4231 175.33C74.2498 173.898 74.6846 172.669 74.7276 171.644C74.7706 170.619 74.2552 169.796 73.1813 169.176Z"
    fill="#880E4F"
  />
  <path
    d="M144.63 208.382L142.754 211.631L137.707 208.717L130.453 221.281L130.695 221.421L137.39 218.628L138.805 222.13L130.911 225.447L124.737 221.882L133.68 206.392L129.707 204.098L131.582 200.849L144.63 208.382ZM123.188 195.573C125.64 196.989 126.966 198.888 127.165 201.27C127.365 203.652 126.581 206.374 124.814 209.434C123.047 212.495 121.082 214.534 118.919 215.553C116.756 216.571 114.449 216.372 111.997 214.957C109.545 213.541 108.219 211.642 108.019 209.26C107.82 206.877 108.603 204.156 110.37 201.095C112.137 198.035 114.102 195.995 116.265 194.977C118.428 193.959 120.736 194.158 123.188 195.573ZM121.219 198.983C120.145 198.363 119.175 198.328 118.309 198.878C117.443 199.427 116.596 200.418 115.769 201.85L113.723 205.394C112.897 206.826 112.462 208.054 112.419 209.079C112.376 210.104 112.891 210.927 113.965 211.547C115.039 212.167 116.009 212.202 116.875 211.652C117.742 211.102 118.588 210.112 119.415 208.68L121.461 205.136C122.288 203.704 122.722 202.476 122.765 201.451C122.808 200.425 122.293 199.603 121.219 198.983ZM107.09 186.279C109.542 187.695 110.868 189.594 111.068 191.976C111.267 194.359 110.483 197.08 108.716 200.14C106.949 203.201 104.984 205.24 102.822 206.259C100.659 207.277 98.3511 207.078 95.8991 205.663C93.4471 204.247 92.1213 202.348 91.9217 199.966C91.7221 197.583 92.5058 194.862 94.2728 191.801C96.0398 188.741 98.0048 186.702 100.168 185.683C102.331 184.665 104.638 184.864 107.09 186.279ZM105.122 189.689C104.048 189.069 103.078 189.034 102.211 189.584C101.345 190.133 100.499 191.124 99.6719 192.556L97.6259 196.1C96.7992 197.532 96.3643 198.76 96.3213 199.785C96.2783 200.811 96.7937 201.633 97.8676 202.253C98.9415 202.873 99.9116 202.908 100.778 202.358C101.644 201.809 102.491 200.818 103.317 199.386L105.363 195.842C106.19 194.41 106.625 193.182 106.668 192.157C106.711 191.131 106.195 190.309 105.122 189.689ZM90.9925 176.985C93.4445 178.401 94.7703 180.3 94.9699 182.682C95.1695 185.065 94.3858 187.786 92.6188 190.847C90.8518 193.907 88.8869 195.946 86.7239 196.965C84.561 197.983 82.2535 197.784 79.8015 196.369C77.3495 194.953 76.0237 193.054 75.8241 190.672C75.6245 188.289 76.4082 185.568 78.1752 182.508C79.9422 179.447 81.9072 177.408 84.0701 176.389C86.2331 175.371 88.5405 175.57 90.9925 176.985ZM89.024 180.395C87.9502 179.775 86.9801 179.74 86.1137 180.29C85.2474 180.839 84.4009 181.83 83.5743 183.262L81.5283 186.806C80.7016 188.238 80.2668 189.466 80.2237 190.491C80.1807 191.517 80.6962 192.339 81.77 192.959C82.8439 193.579 83.814 193.614 84.6803 193.064C85.5466 192.515 86.3931 191.524 87.2198 190.092L89.2658 186.548C90.0925 185.116 90.5273 183.888 90.5703 182.863C90.6133 181.837 90.0979 181.015 89.024 180.395ZM74.8949 167.691C77.3469 169.107 78.6727 171.006 78.8723 173.388C79.0719 175.771 78.2882 178.492 76.5212 181.553C74.7542 184.613 72.7893 186.653 70.6263 187.671C68.4634 188.689 66.1559 188.49 63.7039 187.075C61.2519 185.659 59.9261 183.76 59.7265 181.378C59.527 178.996 60.3107 176.274 62.0777 173.214C63.8447 170.153 65.8096 168.114 67.9725 167.095C70.1355 166.077 72.4429 166.276 74.8949 167.691ZM72.9264 171.101C71.8526 170.481 70.8825 170.446 70.0162 170.996C69.1498 171.546 68.3033 172.536 67.4767 173.968L65.4307 177.512C64.604 178.944 64.1692 180.172 64.1262 181.197C64.0831 182.223 64.5986 183.045 65.6724 183.665C66.7463 184.285 67.7164 184.32 68.5827 183.77C69.449 183.221 70.2955 182.23 71.1222 180.798L73.1682 177.254C73.9949 175.822 74.4297 174.594 74.4727 173.569C74.5157 172.544 74.0003 171.721 72.9264 171.101Z"
    fill="white"
  />
  <path
    d="M136.568 297.32L145.079 292.407L142.056 286.241L141.841 286.365C141.921 286.916 141.956 287.432 141.948 287.914C141.932 288.424 141.845 288.893 141.685 289.319C141.536 289.763 141.288 290.181 140.941 290.572C140.594 290.963 140.125 291.329 139.535 291.67C138.729 292.135 137.9 292.435 137.047 292.569C136.194 292.704 135.358 292.661 134.54 292.442C133.731 292.241 132.958 291.852 132.22 291.276C131.492 290.718 130.859 289.973 130.322 289.043C129.774 288.094 129.424 287.115 129.27 286.106C129.11 285.125 129.172 284.158 129.457 283.206C129.725 282.264 130.208 281.364 130.907 280.508C131.616 279.669 132.543 278.919 133.688 278.257C134.601 277.73 135.463 277.364 136.275 277.158C137.087 276.952 137.854 276.855 138.577 276.867C139.31 276.897 139.998 277.013 140.639 277.215C141.281 277.417 141.885 277.677 142.45 277.995L140.857 281.994C140.021 281.498 139.168 281.155 138.295 280.967C137.433 280.796 136.519 280.99 135.552 281.548C134.586 282.106 134.021 282.802 133.858 283.636C133.677 284.48 133.85 285.359 134.377 286.271L134.501 286.486C134.997 287.345 135.641 287.881 136.431 288.092C137.222 288.304 138.055 288.157 138.932 287.651C139.666 287.227 140.187 286.724 140.494 286.14C140.795 285.585 140.987 285.092 141.072 284.661L144.638 283.211L150.063 294.219L138.599 300.837L136.568 297.32ZM117.456 287.629C119.908 286.213 122.216 286.014 124.379 287.033C126.542 288.051 128.507 290.09 130.274 293.151C132.041 296.212 132.824 298.933 132.625 301.315C132.425 303.698 131.099 305.597 128.647 307.012C126.195 308.428 123.888 308.627 121.725 307.608C119.562 306.59 117.597 304.551 115.83 301.49C114.063 298.429 113.279 295.708 113.479 293.326C113.679 290.943 115.004 289.044 117.456 287.629ZM119.425 291.038C118.351 291.658 117.836 292.481 117.879 293.506C117.922 294.531 118.356 295.76 119.183 297.192L121.229 300.735C122.056 302.167 122.902 303.158 123.769 303.708C124.635 304.258 125.605 304.223 126.679 303.603C127.753 302.983 128.268 302.16 128.225 301.135C128.182 300.11 127.747 298.881 126.921 297.449L124.875 293.906C124.048 292.474 123.201 291.483 122.335 290.933C121.469 290.383 120.499 290.418 119.425 291.038ZM101.359 296.923C103.811 295.507 106.118 295.308 108.281 296.327C110.444 297.345 112.409 299.384 114.176 302.445C115.943 305.505 116.727 308.227 116.527 310.609C116.328 312.991 115.002 314.89 112.55 316.306C110.098 317.722 107.79 317.92 105.627 316.902C103.464 315.884 101.499 313.844 99.7325 310.784C97.9655 307.723 97.1817 305.002 97.3813 302.62C97.5809 300.237 98.9067 298.338 101.359 296.923ZM103.327 300.332C102.253 300.952 101.738 301.775 101.781 302.8C101.824 303.825 102.259 305.054 103.085 306.486L105.131 310.029C105.958 311.461 106.805 312.452 107.671 313.002C108.537 313.552 109.507 313.517 110.581 312.897C111.655 312.277 112.171 311.454 112.128 310.429C112.085 309.404 111.65 308.175 110.823 306.743L108.777 303.2C107.95 301.768 107.104 300.777 106.238 300.227C105.371 299.677 104.401 299.712 103.327 300.332ZM85.2612 306.217C87.7132 304.801 90.0206 304.602 92.1836 305.621C94.3465 306.639 96.3114 308.678 98.0784 311.739C99.8454 314.799 100.629 317.521 100.43 319.903C100.23 322.285 98.9042 324.184 96.4522 325.6C94.0001 327.016 91.6927 327.214 89.5298 326.196C87.3668 325.178 85.4019 323.138 83.6349 320.078C81.8679 317.017 81.0842 314.296 81.2838 311.914C81.4833 309.531 82.8091 307.632 85.2612 306.217ZM87.2297 309.626C86.1558 310.246 85.6404 311.069 85.6834 312.094C85.7264 313.119 86.1612 314.348 86.9879 315.78L89.0339 319.323C89.8606 320.755 90.7071 321.746 91.5734 322.296C92.4397 322.846 93.4098 322.811 94.4837 322.191C95.5575 321.571 96.073 320.748 96.0299 319.723C95.9869 318.698 95.5521 317.469 94.7254 316.037L92.6794 312.494C91.8527 311.062 91.0063 310.071 90.1399 309.521C89.2736 308.971 88.3035 309.006 87.2297 309.626ZM69.1636 315.511C71.6156 314.095 73.923 313.896 76.086 314.915C78.2489 315.933 80.2139 317.972 81.9809 321.033C83.7479 324.093 84.5316 326.815 84.332 329.197C84.1324 331.579 82.8066 333.478 80.3546 334.894C77.9026 336.31 75.5951 336.508 73.4322 335.49C71.2692 334.472 69.3043 332.432 67.5373 329.372C65.7703 326.311 64.9866 323.59 65.1862 321.208C65.3858 318.825 66.7116 316.926 69.1636 315.511ZM71.1321 318.92C70.0582 319.54 69.5428 320.363 69.5858 321.388C69.6288 322.413 70.0636 323.642 70.8903 325.073L72.9363 328.617C73.763 330.049 74.6095 331.04 75.4758 331.59C76.3421 332.14 77.3122 332.104 78.3861 331.484C79.4599 330.864 79.9754 330.042 79.9323 329.017C79.8893 327.992 79.4545 326.763 78.6278 325.331L76.5818 321.787C75.7552 320.356 74.9087 319.365 74.0424 318.815C73.176 318.265 72.2059 318.3 71.1321 318.92Z"
    fill="#134E48"
  />
  <path
    d="M138.107 298.504L146.618 293.59L143.595 287.424L143.38 287.548C143.46 288.099 143.495 288.616 143.487 289.098C143.472 289.608 143.384 290.076 143.224 290.502C143.075 290.946 142.827 291.364 142.48 291.755C142.133 292.146 141.664 292.512 141.074 292.853C140.268 293.318 139.439 293.618 138.586 293.753C137.733 293.887 136.897 293.845 136.079 293.626C135.27 293.424 134.497 293.035 133.759 292.459C133.031 291.901 132.398 291.157 131.861 290.226C131.313 289.277 130.963 288.298 130.81 287.289C130.649 286.308 130.711 285.341 130.997 284.389C131.264 283.447 131.747 282.548 132.446 281.691C133.155 280.852 134.082 280.102 135.227 279.441C136.14 278.914 137.002 278.547 137.814 278.341C138.626 278.135 139.393 278.038 140.116 278.05C140.849 278.08 141.537 278.196 142.178 278.399C142.82 278.601 143.424 278.861 143.989 279.179L142.396 283.177C141.56 282.681 140.707 282.339 139.834 282.15C138.972 281.98 138.058 282.174 137.091 282.732C136.125 283.29 135.56 283.986 135.397 284.819C135.216 285.664 135.39 286.542 135.917 287.455L136.041 287.67C136.537 288.529 137.18 289.064 137.97 289.276C138.761 289.488 139.594 289.341 140.471 288.834C141.205 288.411 141.726 287.907 142.034 287.324C142.334 286.769 142.526 286.276 142.611 285.845L146.177 284.395L151.602 295.402L140.138 302.021L138.107 298.504ZM118.995 288.812C121.447 287.397 123.755 287.198 125.918 288.216C128.081 289.235 130.046 291.274 131.813 294.334C133.58 297.395 134.363 300.116 134.164 302.499C133.964 304.881 132.638 306.78 130.186 308.196C127.734 309.611 125.427 309.81 123.264 308.792C121.101 307.773 119.136 305.734 117.369 302.673C115.602 299.613 114.818 296.892 115.018 294.509C115.218 292.127 116.543 290.228 118.995 288.812ZM120.964 292.222C119.89 292.842 119.375 293.664 119.418 294.69C119.461 295.715 119.895 296.943 120.722 298.375L122.768 301.919C123.595 303.351 124.441 304.342 125.308 304.891C126.174 305.441 127.144 305.406 128.218 304.786C129.292 304.166 129.807 303.344 129.764 302.318C129.721 301.293 129.286 300.065 128.46 298.633L126.414 295.089C125.587 293.657 124.74 292.666 123.874 292.117C123.008 291.567 122.038 291.602 120.964 292.222ZM102.898 298.106C105.35 296.691 107.657 296.492 109.82 297.51C111.983 298.528 113.948 300.568 115.715 303.628C117.482 306.689 118.266 309.41 118.066 311.793C117.867 314.175 116.541 316.074 114.089 317.49C111.637 318.905 109.329 319.104 107.166 318.086C105.003 317.067 103.039 315.028 101.272 311.967C99.5045 308.907 98.7208 306.185 98.9204 303.803C99.12 301.421 100.446 299.522 102.898 298.106ZM104.866 301.516C103.792 302.136 103.277 302.958 103.32 303.984C103.363 305.009 103.798 306.237 104.625 307.669L106.671 311.213C107.497 312.645 108.344 313.635 109.21 314.185C110.076 314.735 111.046 314.7 112.12 314.08C113.194 313.46 113.71 312.637 113.667 311.612C113.624 310.587 113.189 309.359 112.362 307.927L110.316 304.383C109.489 302.951 108.643 301.96 107.777 301.411C106.91 300.861 105.94 300.896 104.866 301.516ZM86.8002 307.4C89.2522 305.985 91.5597 305.786 93.7226 306.804C95.8855 307.822 97.8505 309.862 99.6175 312.922C101.385 315.983 102.168 318.704 101.969 321.087C101.769 323.469 100.443 325.368 97.9912 326.784C95.5392 328.199 93.2317 328.398 91.0688 327.38C88.9059 326.361 86.9409 324.322 85.1739 321.261C83.4069 318.201 82.6232 315.479 82.8228 313.097C83.0224 310.715 84.3482 308.816 86.8002 307.4ZM88.7687 310.81C87.6948 311.43 87.1794 312.252 87.2224 313.277C87.2654 314.303 87.7003 315.531 88.527 316.963L90.573 320.507C91.3996 321.939 92.2461 322.929 93.1124 323.479C93.9787 324.029 94.9488 323.994 96.0227 323.374C97.0966 322.754 97.612 321.931 97.569 320.906C97.526 319.881 97.0911 318.653 96.2645 317.221L94.2185 313.677C93.3918 312.245 92.5453 311.254 91.679 310.704C90.8127 310.155 89.8426 310.19 88.7687 310.81ZM70.7026 316.694C73.1546 315.278 75.4621 315.08 77.625 316.098C79.788 317.116 81.7529 319.156 83.5199 322.216C85.2869 325.277 86.0706 327.998 85.871 330.381C85.6714 332.763 84.3456 334.662 81.8936 336.078C79.4416 337.493 77.1342 337.692 74.9712 336.674C72.8083 335.655 70.8433 333.616 69.0763 330.555C67.3093 327.495 66.5256 324.773 66.7252 322.391C66.9248 320.009 68.2506 318.11 70.7026 316.694ZM72.6711 320.104C71.5973 320.724 71.0818 321.546 71.1248 322.571C71.1679 323.597 71.6027 324.825 72.4294 326.257L74.4754 329.801C75.302 331.233 76.1485 332.223 77.0148 332.773C77.8812 333.323 78.8513 333.288 79.9251 332.668C80.999 332.048 81.5144 331.225 81.4714 330.2C81.4284 329.175 80.9936 327.947 80.1669 326.515L78.1209 322.971C77.2942 321.539 76.4477 320.548 75.5814 319.998C74.7151 319.449 73.745 319.484 72.6711 320.104Z"
    fill="white"
  />
  <defs>
    <radialGradient
      id="paint0_radial_17_9534"
      cx="0"
      cy="0"
      r="1"
      gradientUnits="userSpaceOnUse"
      gradientTransform="translate(201.024 252.574) scale(210.417)"
    >
      <stop offset="0.81" stop-color="white" />
      <stop offset="0.87" stop-color="#FCFCFD" />
      <stop offset="0.91" stop-color="#F3F4F6" />
      <stop offset="0.94" stop-color="#E9ECF0" />
      <stop offset="0.97" stop-color="#B9C3CE" />
      <stop offset="1" stop-color="#899BAD" />
    </radialGradient>
    <linearGradient
      id="paint1_linear_17_9534"
      x1="200.999"
      y1="7.44015"
      x2="200.999"
      y2="76.3863"
      gradientUnits="userSpaceOnUse"
    >
      <stop stop-color="#FEDC31" />
      <stop offset="0.09" stop-color="#FDC347" />
      <stop offset="0.27" stop-color="#FC8682" />
      <stop offset="0.52" stop-color="#FA2CD7" />
      <stop offset="0.76" stop-color="#987CDB" />
      <stop offset="1" stop-color="#33D0E0" />
    </linearGradient>
    <radialGradient
      id="paint2_radial_17_9534"
      cx="0"
      cy="0"
      r="1"
      gradientUnits="userSpaceOnUse"
      gradientTransform="translate(196.824 259.196) scale(38.417)"
    >
      <stop offset="0.63" stop-color="#662E29" />
      <stop offset="0.66" stop-color="#75423E" />
      <stop offset="0.78" stop-color="#AF9290" />
      <stop offset="0.88" stop-color="#DACDCB" />
      <stop offset="0.96" stop-color="#F4F1F0" />
      <stop offset="1" stop-color="white" />
    </radialGradient>
    <linearGradient
      id="paint3_linear_17_9534"
      x1="183.84"
      y1="233.758"
      x2="227.808"
      y2="277.726"
      gradientUnits="userSpaceOnUse"
    >
      <stop stop-color="#FEDC31" />
      <stop offset="0.09" stop-color="#FDC347" />
      <stop offset="0.27" stop-color="#FC8682" />
      <stop offset="0.52" stop-color="#FA2CD7" />
      <stop offset="0.76" stop-color="#987CDB" />
      <stop offset="1" stop-color="#33D0E0" />
    </linearGradient>
    <linearGradient
      id="paint4_linear_17_9534"
      x1="224.227"
      y1="231.024"
      x2="171.787"
      y2="283.464"
      gradientUnits="userSpaceOnUse"
    >
      <stop offset="0.28" stop-color="#303030" />
      <stop offset="1" stop-color="#000604" />
    </linearGradient>
  </defs>
</svg>
