<svg xmlns="http://www.w3.org/2000/svg" width="360" height="360" viewBox="11.5 30 360 360"
  fill="none">
  <g clip-path="url(#clip0_349_34423)">
    <g clip-path="url(#clip1_349_34423)">

      <path
        d="M365.373 209.884C365.373 240.403 357.339 270.384 342.08 296.814C326.82 323.245 304.872 345.192 278.442 360.452L191.512 209.884L365.373 209.884Z"
        fill="#22CCEE" />
      <path
        d="M278.441 59.3147C304.871 74.5742 326.819 96.522 342.079 122.952C357.338 149.383 365.372 179.364 365.372 209.883L191.511 209.883L278.441 59.3147Z"
        fill="#FEC84B" />
      <path
        d="M104.582 59.315C131.012 44.0555 160.994 36.022 191.513 36.022C222.032 36.022 252.013 44.0555 278.443 59.315L191.513 209.883L104.582 59.315Z"
        fill="#F79009" />
      <path
        d="M17.6506 209.883C17.6506 179.364 25.6841 149.383 40.9436 122.953C56.2031 96.5226 78.151 74.5747 104.581 59.3152L191.512 209.883L17.6506 209.883Z"
        fill="#EC407A" />
      <path
        d="M104.582 360.452C78.1521 345.192 56.2042 323.245 40.9447 296.814C25.6852 270.384 17.6517 240.403 17.6517 209.884L191.513 209.884L104.582 360.452Z"
        fill="#2ED3B7" />
      <path
        d="M278.441 360.451C252.011 375.711 222.03 383.744 191.511 383.744C160.992 383.744 131.01 375.711 104.58 360.451L191.511 209.883L278.441 360.451Z"
        fill="#9C27B0" />
      <g style="mix-blend-mode:overlay">
        <path
          d="M191.855 161.865L205.54 186.18L233.44 185.875L219.225 209.884L233.44 233.893L205.54 233.588L191.855 257.903L178.169 233.588L150.269 233.893L164.484 209.884L150.269 185.875L178.169 186.18L191.855 161.865Z"
          fill="#344054" />
      </g>
      <g style="mix-blend-mode:overlay">
        <path
          d="M191.855 56.7202L235.506 134.277L324.498 133.302L279.158 209.884L324.498 286.465L235.506 285.49L191.855 363.047L148.203 285.49L59.2114 286.465L104.552 209.884L59.2114 133.302L148.203 134.277L191.855 56.7202Z"
          fill="#344054" />
      </g>
    </g>
  </g>
  <defs>

    <clipPath id="clip0_349_34423">
      <rect width="380" height="414.244" rx="8.83721" fill="white" />
    </clipPath>
    <clipPath id="clip1_349_34423">
      <rect width="419.215" height="496.102" fill="white" />
    </clipPath>
  </defs>
</svg>